<svg xmlns="http://www.w3.org/2000/svg" xmlns:xlink="http://www.w3.org/1999/xlink" width="160" zoomAndPan="magnify" viewBox="0 0 120 30.000001" height="40" preserveAspectRatio="xMidYMid meet" version="1.0"><defs><g/></defs><g fill="#000000" fill-opacity="1"><g transform="translate(5.947717, 21.392191)"><g><path d="M 9.265625 -16.257812 L 1.589844 -16.257812 L 1.589844 0 L 4.132812 0 L 4.132812 -6.40625 L 9.265625 -6.40625 C 12.882812 -6.40625 14.324219 -8.703125 14.324219 -11.34375 C 14.324219 -13.933594 12.882812 -16.257812 9.265625 -16.257812 Z M 8.652344 -8.433594 L 4.132812 -8.433594 L 4.132812 -14.226562 L 8.652344 -14.226562 C 10.953125 -14.226562 11.683594 -13.003906 11.683594 -11.34375 C 11.683594 -9.679688 10.953125 -8.433594 8.652344 -8.433594 Z M 8.652344 -8.433594 "/></g></g></g><g fill="#000000" fill-opacity="1"><g transform="translate(21.250777, 21.392191)"><g><path d="M 0.832031 -4.082031 C 0.832031 -1.589844 2.46875 0.390625 6.503906 0.390625 C 10.046875 0.390625 11.683594 -0.90625 11.683594 -3.421875 C 11.683594 -5.304688 10.855469 -6.699219 7.824219 -7.164062 L 5.183594 -7.554688 C 3.863281 -7.75 3.496094 -8.359375 3.496094 -9.09375 C 3.496094 -10.070312 4.253906 -10.828125 6.136719 -10.828125 C 8.019531 -10.828125 8.921875 -9.875 9.046875 -8.75 L 11.488281 -8.75 C 11.320312 -11.050781 9.363281 -12.640625 6.210938 -12.640625 C 3.007812 -12.640625 1.125 -11.222656 1.125 -8.875 C 1.125 -7.015625 2.273438 -5.84375 4.402344 -5.523438 L 7.433594 -5.058594 C 8.726562 -4.863281 9.289062 -4.300781 9.289062 -3.300781 C 9.289062 -2.175781 8.75 -1.417969 6.574219 -1.417969 C 4.203125 -1.417969 3.203125 -2.589844 3.105469 -4.082031 Z M 0.832031 -4.082031 "/></g></g></g><g fill="#000000" fill-opacity="1"><g transform="translate(33.864806, 21.392191)"><g><path d="M 10.78125 -12.222656 L 7.433594 -3.496094 L 6.96875 -2.027344 L 6.453125 -3.496094 L 3.152344 -12.222656 L 0.636719 -12.222656 L 5.257812 0 L 6.136719 0 L 4.988281 2.933594 L 1.367188 2.933594 L 1.367188 4.890625 L 3.472656 4.890625 C 6.429688 4.890625 7.039062 3.667969 8.042969 1.074219 L 13.152344 -12.222656 Z M 10.78125 -12.222656 "/></g></g></g><g fill="#000000" fill-opacity="1"><g transform="translate(47.57889, 21.392191)"><g><path d="M 0.734375 -7.039062 L 0.734375 -5.207031 L 10.511719 -5.207031 L 10.511719 -7.039062 Z M 0.734375 -7.039062 "/></g></g></g><g fill="#000000" fill-opacity="1"><g transform="translate(58.823952, 21.392191)"><g><path d="M 8.777344 -9.410156 L 15.230469 -16.257812 L 11.929688 -16.257812 L 4.105469 -7.652344 L 4.105469 -16.257812 L 1.589844 -16.257812 L 1.589844 0 L 4.105469 0 L 4.105469 -4.449219 L 7.089844 -7.601562 L 12.542969 0 L 15.597656 0 L 15.597656 -0.121094 Z M 8.777344 -9.410156 "/></g></g></g><g fill="#000000" fill-opacity="1"><g transform="translate(75.520425, 21.392191)"><g><path d="M 8.457031 -12.417969 C 6.183594 -12.417969 4.863281 -11.074219 4.132812 -9.265625 L 4.132812 -12.222656 L 1.710938 -12.222656 L 1.710938 0 L 4.15625 0 L 4.15625 -4.667969 C 4.15625 -7.992188 4.9375 -10.046875 8.214844 -10.046875 L 8.824219 -10.046875 L 8.824219 -12.417969 Z M 8.457031 -12.417969 "/></g></g></g><g fill="#000000" fill-opacity="1"><g transform="translate(85.103172, 21.392191)"><g><path d="M 1.394531 -14.058594 L 4.472656 -14.058594 L 4.472656 -16.257812 L 1.394531 -16.257812 Z M 1.710938 0 L 4.15625 0 L 4.15625 -12.222656 L 1.710938 -12.222656 Z M 1.710938 0 "/></g></g></g><g fill="#000000" fill-opacity="1"><g transform="translate(90.970164, 21.392191)"><g><path d="M 0.367188 0 L 3.277344 0 L 3.277344 -2.347656 L 0.367188 -2.347656 Z M 0.367188 0 "/></g></g></g><g fill="#000000" fill-opacity="1"><g transform="translate(94.612586, 21.392191)"><g><path d="M 5.402344 0.316406 C 7.992188 0.316406 9.339844 -1.222656 9.828125 -2.761719 C 9.828125 -1.785156 9.875 -0.953125 9.972656 0 L 12.199219 0 C 12.101562 -1.148438 12.078125 -1.882812 12.078125 -2.785156 L 12.078125 -8.851562 C 12.078125 -11.097656 10.414062 -12.640625 7.039062 -12.640625 C 3.570312 -12.640625 1.636719 -11 1.613281 -8.410156 L 4.058594 -8.410156 C 4.179688 -9.949219 5.132812 -10.757812 7.136719 -10.757812 C 9.242188 -10.757812 9.828125 -10 9.828125 -8.898438 C 9.828125 -8.042969 9.289062 -7.675781 8.117188 -7.480469 L 5.058594 -6.96875 C 2.324219 -6.503906 1.34375 -5.230469 1.34375 -3.277344 C 1.34375 -1.027344 2.910156 0.316406 5.402344 0.316406 Z M 5.917969 -1.566406 C 4.644531 -1.566406 3.789062 -2.199219 3.789062 -3.375 C 3.789062 -4.5 4.449219 -5.085938 5.964844 -5.425781 L 7.652344 -5.816406 C 8.386719 -5.988281 9.167969 -6.183594 9.828125 -6.675781 L 9.828125 -5.941406 C 9.828125 -3.496094 8.484375 -1.566406 5.917969 -1.566406 Z M 5.917969 -1.566406 "/></g></g></g><g fill="#000000" fill-opacity="1"><g transform="translate(108.179998, 21.392191)"><g><path d="M 1.394531 -14.058594 L 4.472656 -14.058594 L 4.472656 -16.257812 L 1.394531 -16.257812 Z M 1.710938 0 L 4.15625 0 L 4.15625 -12.222656 L 1.710938 -12.222656 Z M 1.710938 0 "/></g></g></g></svg>